# xmcd
#
# Track frame offsets: 
#        182
#        20427
#        36455
#        51260
#        66105
#        78727
#        94782
#        109595
#        128707
#        143462
#        157457
#        176022
#
# Disc length: 2556 seconds
#
# Revision: 2
# Processed by: cddbd v1.5.2PL0 Copyright (c) Steve Scherf et al.
# Submitted via: ExactAudioCopyFreeDBPlugin 1.0
#
DISCID=a609fa0c
DTITLE=Sonny Terry and Brownie McGhee - East Coast Blues
DYEAR=1900
DGENRE=Blues
TTITLE0=Hear me talking
TTITLE1=The shape I'm in
TTITLE2=Raise tonight
TTITLE3=C.C. Rider
TTITLE4=Cindy, Cindy
TTITLE5=Right now is the time
TTITLE6=Worried life blues
TTITLE7=John Henry
TTITLE8=Honey Babe don't mind
TTITLE9=Down by the Riverside
TTITLE10=Take this Hammer
TTITLE11=Jerry Roll
EXTD=ID3G: 0
EXTT0=
EXTT1=
EXTT2=
EXTT3=
EXTT4=
EXTT5=
EXTT6=
EXTT7=
EXTT8=
EXTT9=
EXTT10=
EXTT11=
PLAYORDER=
